<?xml version="1.0" standalone="no"?>
<!DOCTYPE svg PUBLIC "-//W3C//DTD SVG 20010904//EN"
 "http://www.w3.org/TR/2001/REC-SVG-20010904/DTD/svg10.dtd">
<svg version="1.0" xmlns="http://www.w3.org/2000/svg"
 width="700.000000pt" height="700.000000pt" viewBox="0 0 700.000000 700.000000"
 preserveAspectRatio="xMidYMid meet">
<metadata>
Created by potrace 1.14, written by Peter Selinger 2001-2017
</metadata>
<g transform="translate(0.000000,700.000000) scale(0.100000,-0.100000)"
fill="#000000" stroke="none">
<path d="M0 3895 l0 -1595 248 2 247 3 5 325 6 325 80 178 c45 97 83 179 85
181 3 3 90 -220 194 -496 105 -275 193 -504 196 -509 3 -5 116 -8 272 -7 l266
3 -320 836 -321 836 312 744 c172 409 314 750 317 757 4 9 -53 12 -264 12
l-270 0 -263 -617 c-144 -340 -268 -629 -276 -643 -11 -21 -13 75 -14 618 l0
642 -250 0 -250 0 0 -1595z"/>
<path d="M1730 5483 c1 -5 144 -721 318 -1593 l318 -1585 250 -3 251 -2 316
1582 c175 871 317 1589 317 1596 0 9 -58 12 -255 12 -140 0 -255 -4 -255 -9 0
-14 -370 -2124 -373 -2127 -1 -1 -85 471 -186 1049 -100 579 -185 1060 -188
1070 -4 16 -25 17 -259 17 -140 0 -254 -3 -254 -7z"/>
<path d="M5480 5235 l0 -255 413 -2 413 -3 -408 -1320 c-224 -726 -409 -1328
-411 -1337 -5 -17 36 -18 754 -18 l759 0 0 255 0 255 -410 0 c-225 0 -410 4
-410 8 0 6 756 2466 814 2650 l7 22 -760 0 -761 0 0 -255z"/>
<path d="M3990 4646 c0 0 -153 -701 -339 -1556 -187 -855 -338 -1556 -337
-1557 7 -7 479 -103 484 -98 4 3 66 283 139 622 73 339 134 617 135 619 3 2
49 -7 195 -41 l22 -5 -6 -655 c-3 -360 -4 -655 -2 -655 3 0 112 -23 243 -50
131 -28 241 -48 244 -45 6 5 30 1006 31 1277 l1 137 73 38 c106 55 210 163
269 278 60 118 78 177 138 472 72 357 68 490 -21 670 -72 146 -222 282 -376
342 -71 28 -158 49 -513 126 -168 36 -322 70 -342 74 -21 5 -38 8 -38 7z m539
-630 c153 -35 212 -58 244 -94 27 -30 46 -90 47 -149 0 -66 -84 -481 -111
-543 -36 -83 -104 -130 -188 -130 -35 0 -327 62 -336 72 -4 4 168 832 180 866
6 15 -10 17 164 -22z"/>
</g>
</svg>
